/* XPM */
static char *result[] = {
/* columns rows colors chars-per-pixel */
"64 64 5 1 ",
"  c black",
". c #610000",
"X c #9F0000",
"o c #C9A661",
"O c None",
/* pixels */
"OOOOOOOOOOOOOOOOOOOOOOOOOOOOOOOOOOOOOOOOOOOOOOOOOOOOOOOOOOOOOOOO",
"OOOOOOOOOOOOOOOOOOOOOOOOOOOOOOOOOOOOOOOOOOOOOOOOOOOOOOOOOOOOOOOO",
"OOOOOOOOOOOOOOOOOOOOOOOOOOOOOOOOOOOOOOOOOOOOOOOOOOOOOOOOOOOOOOOO",
"OOOOOOOOOOOOOOOOOOOOOOOOOOOOOOOOOOOOOOOOOOOOOOOOOOOOOOOOOOOOOOOO",
"OOOOOOOOOOOOOOOOOOOOOOOOOOOOOOOOOOOOOOOOOOOOOOOOOOOOOOOOOOOOOOOO",
"OOOOOOOOOOOOOOOOOOOOOOOOOOOOOOOOOOOOOOOOOOOOOOOOOOOOOOOOOOOOOOOO",
"OOOOOOOOOOOOOOOOOOOOOOOOOOOOOOOOOOOOOOOOOOOOOOOOOOOOOOOOOOOOOOOO",
"OOOOOOOOOOOOOOOOOOOOOOOOOOOOOOOOOOOOOOOOOOOOOOOOOOOOOOOOOOOOOOOO",
"OOOOOOOOOOOOOOOOOOOOOOOOOOOOOOOOOOOOOOOOOOOOOOOOOOOOOOOOOOOOOOOO",
"OOOOOOOOOOOOOOOOOOOOOOOOOOOOOOOOOOOOOOOOOOOOOOOOOOOOOOOOOOOOOOOO",
"OOOOOOOOOOOOOOOOOOOOOOOOOOOOOOOOOOOOOOOOOOOOOOOOOOOOOOOOOOOOOOOO",
"OOOOOOOOOOOOOOOOOOOOOOOOOOOOOOOOOOOOOOOOOOOOOOOOOOOOOOOOOOOOOOOO",
"OOOOOOOOOOOOOOOOOOOOOOOOOOOOOOOOOOOOOOOOOOOOOOOOOOOOOOOOOOOOOOOO",
"OOOOOOOOOOOOOOOOOOOOOOOOOOOOOOOOOOOOOOOOOOOOOOOOOOOOOOOOOOOOOOOO",
"OOOOOOOOOOOOOOOOOOOOOOOOOOOOOOOOOOOOOOOOOOOOOOOOOOOOOOOOOOOOOOOO",
"OOOOOOOOOOOOOOOOOOOOOOOOOOOOOOOOOOOOOOOOOOOOOOOOOOOOOOOOOOOOOOOO",
"OOOOOOOOOOOOOOOOOOOOOOOOOOOOOOOOOOOOOOOOOOOOOOOOOOOOOOOOOOOOOOOO",
"OOOOOOOOOOOOOOOOOOOOOOOOOOOOOOOOOOOOOOOOOOOOOOOOOOOOOOOOOOOOOOOO",
"OOOOOOOOOOOOOOOOOOOOOOOOOOOOOOOOOOOOOOOOOOOOOOOOOOOOOOOOOOOOOOOO",
"OOOOOOOOOOOOOOOOOOOOOOOOOOOOOOOOOOOOOOOOOOOOOOOOOOOOOOOOOOOOOOOO",
"OOOOOOOOOOOOOOOOOOOOOOOOOOOOOOOOOOOOOOOOOOOOOOOOOOOOOOOOOOOOOOOO",
"OOOOOOOOOOOOOOOOOOOOOOOOOOOOOOOOOOOOOOOOOOOOOOOOOOOOOOOOOOOOOOOO",
"OOOOOOOOOOOOOOOOOOOOOOOOOOOOOOOOOOOOOOOOOOOOOOOOOOOOOOOOOOOOOOOO",
"OOOOOOOOOOOOOOOOOOOOOOOOOOOOOOOOOOOOOOOOOOOOOOOOOOOOOOOOOOOOOOOO",
"OOOOOOOOOOOOOOO                                  OOOOOOOOOOOOOOO",
"OOOOOOOOOOOOOO oooooooooooooooooooooooooooooooooo OOOOOOOOOOOOOO",
"OOOOOOOOOOOOO o oooooooooooooooooooooooooooooooo o OOOOOOOOOOOOO",
"OOOOOOOOOOOOO oo oooooooooooooooooooooooooooooo oo OOOOOOOOOOOOO",
"OOOOOOOOOOOOO ooo oooooooooooooooooooooooooooo ooo OOOOOOOOOOOOO",
"OOOOOOOOOOOOO oooo oooooooooooooooooooooooooo oooo OOOOOOOOOOOOO",
"OOOOOOOOOOOOO oooo  oooooooooooooooooooooooo  oooo OOOOOOOOOOOOO",
"OOOOOOOOOOOOO ooooo   oooooo........oooooo   ooooo OOOOOOOOOOOOO",
"OOOOOOOOOOOOO ooooo o   ooo..XXXXXX..ooo   o ooooo OOOOOOOOOOOOO",
"OOOOOOOOOOOOO oooo ooooo  o.XXXXXXXX.o  ooooo oooo OOOOOOOOOOOOO",
"OOOOOOOOOOOOO oooo oooooo ..XX.XX.XX.. oooooo oooo OOOOOOOOOOOOO",
"OOOOOOOOOOOOO oooo ooooooo.XXX.XX.XXX.ooooooo oooo OOOOOOOOOOOOO",
"OOOOOOOOOOOOO ooo  ooooooo.XXX....XXX.ooooooo  ooo OOOOOOOOOOOOO",
"OOOOOOOOOOOOO ooo oooooooo.XXX.XX.XXX.oooooooo ooo OOOOOOOOOOOOO",
"OOOOOOOOOOOOO ooo oooooooo..XX.XX.XX..oooooooo ooo OOOOOOOOOOOOO",
"OOOOOOOOOOOOO ooo ooooooooo.XXXXXXXX.ooooooooo ooo OOOOOOOOOOOOO",
"OOOOOOOOOOOOO ooo oooooooooo..XXXX..oooooooooo ooo OOOOOOOOOOOOO",
"OOOOOOOOOOOOO oo oooooooooooo......oooooooooooo oo OOOOOOOOOOOOO",
"OOOOOOOOOOOOO oo oooooooooooooooooooooooooooooo oo OOOOOOOOOOOOO",
"OOOOOOOOOOOOO o  oooooooooooooooooooooooooooooo  o OOOOOOOOOOOOO",
"OOOOOOOOOOOOO o oooooooooooooooooooooooooooooooo o OOOOOOOOOOOOO",
"OOOOOOOOOOOOO o oooooooooooooooooooooooooooooooo o OOOOOOOOOOOOO",
"OOOOOOOOOOOOOO oooooooooooooooooooooooooooooooooo OOOOOOOOOOOOOO",
"OOOOOOOOOOOOOOO                                  OOOOOOOOOOOOOOO",
"OOOOOOOOOOOOOOOOOOOOOOOOOOOOOOOOOOOOOOOOOOOOOOOOOOOOOOOOOOOOOOOO",
"OOOOOOOOOOOOOOOOOOOOOOOOOOOOOOOOOOOOOOOOOOOOOOOOOOOOOOOOOOOOOOOO",
"OOOOOOOOOOOOOOOOOOOOOOOOOOOOOOOOOOOOOOOOOOOOOOOOOOOOOOOOOOOOOOOO",
"OOOOOOOOOOOOOOOOOOOOOOOOOOOOOOOOOOOOOOOOOOOOOOOOOOOOOOOOOOOOOOOO",
"OOOOOOOOOOOOOOOOOOOOOOOOOOOOOOOOOOOOOOOOOOOOOOOOOOOOOOOOOOOOOOOO",
"OOOOOOOOOOOOOOOOOOOOOOOOOOOOOOOOOOOOOOOOOOOOOOOOOOOOOOOOOOOOOOOO",
"OOOOOOOOOOOOOOOOOOOOOOOOOOOOOOOOOOOOOOOOOOOOOOOOOOOOOOOOOOOOOOOO",
"OOOOOOOOOOOOOOOOOOOOOOOOOOOOOOOOOOOOOOOOOOOOOOOOOOOOOOOOOOOOOOOO",
"OOOOOOOOOOOOOOOOOOOOOOOOOOOOOOOOOOOOOOOOOOOOOOOOOOOOOOOOOOOOOOOO",
"OOOOOOOOOOOOOOOOOOOOOOOOOOOOOOOOOOOOOOOOOOOOOOOOOOOOOOOOOOOOOOOO",
"OOOOOOOOOOOOOOOOOOOOOOOOOOOOOOOOOOOOOOOOOOOOOOOOOOOOOOOOOOOOOOOO",
"OOOOOOOOOOOOOOOOOOOOOOOOOOOOOOOOOOOOOOOOOOOOOOOOOOOOOOOOOOOOOOOO",
"OOOOOOOOOOOOOOOOOOOOOOOOOOOOOOOOOOOOOOOOOOOOOOOOOOOOOOOOOOOOOOOO",
"OOOOOOOOOOOOOOOOOOOOOOOOOOOOOOOOOOOOOOOOOOOOOOOOOOOOOOOOOOOOOOOO",
"OOOOOOOOOOOOOOOOOOOOOOOOOOOOOOOOOOOOOOOOOOOOOOOOOOOOOOOOOOOOOOOO",
"OOOOOOOOOOOOOOOOOOOOOOOOOOOOOOOOOOOOOOOOOOOOOOOOOOOOOOOOOOOOOOOO"
};
