/* XPM */
static char *result[] = {
/* columns rows colors chars-per-pixel */
"64 64 12 1 ",
"  c black",
". c gray3",
"X c #191919",
"o c #37281C",
"O c gray23",
"+ c gray40",
"@ c #797979",
"# c #9E0000",
"$ c #AA9872",
"% c #C2B08A",
"& c white",
"* c None",
/* pixels */
"****************************************************************",
"****************************************************************",
"****************************************************************",
"*********************                     **********************",
"*********************                     **********************",
"********************                        ********************",
"******************                           *******************",
"******************                           *******************",
"***************                                 ****************",
"**************                                    **************",
"**************                                    **************",
"**************         %              $           **************",
"************         %%%               %%          *************",
"************         %%%               %%          *************",
"************        %%%%%% %% %%%%%%%% %%          *************",
"************      %%%%%%%%%%%%%%%%%%%%%%%%%%%%%    *************",
"************      %%%%%%%%%%%%%%%%%%%%%%%%%%%%%    *************",
"************     %%%%%%%%%%%%%%%%%%%%%%%%%%%%%%    *************",
"************     %%%%++++++%%%%%%%%%++++++%%%%%    *************",
"************     %%%%++++++%%%%%%%%%++++++%%%%%    *************",
"************     %%%+%%%%%%++%%%%%%+%%%%%%++%%%    *************",
"************   ++++++%%   %+++++++++%%   %++++++   *************",
"************   ++++++%%   %+++++++++%%   %++++++   *************",
"************  %  %%%+%%   %++%%%%%%+%%   %++%%% %% *************",
"************  %%%%%%+%%%%%%++%%%%%%+%%%%%%++%%%%%% *************",
"************  %%%%%%+%%%%%%++%%%%%%+%%%%%%++%%%%%% *************",
"**************%%%%%%%++++++%%%%%%%%%++++++%%%%%%%%**************",
"***************%%%%%%%%%%%%%%%%%%%%%%%%%%%%%%%%%****************",
"***************%%%%%%%%%%%%%%%%%%%%%%%%%%%%%%%%%****************",
"***************%%%%%%%%%%%%%%%%%%%%%%%%%%%%%%%%%****************",
"*****************%%%%%%%%%%%%%%%%%%%%%%%%%%%%%%*****************",
"*****************%%%%%%%%%%%%%%%%%%%%%%%%%%%%%%*****************",
"******************%%%%%%%%%%%%%%%%%%%%%%%%%%%*******************",
"*****o**************%%%%%%%%%%%%%%%%%%%%%%%%********************",
"*****o**************%%%%%%%%%%%%%%%%%%%%%%%%********************",
"******oo*************......&&&###&&&......**********************",
"******oo*************......&&&###&&&......**********************",
"********o***********...X...@@@&&&@@@......**********************",
"*********oo*********...X...@@@@@@@@@........********************",
"*********oo*********...X...@@@@@@@@@........********************",
"***********o******.........@@@@@@@@@..XXX...********************",
"************oo%**....***...@@@@@@@@@...XXX..********************",
"************oo%**....***...@@@@@@@@@...XXX..********************",
"************%%%.....****...@@@@@@@@@........********************",
"**************....*****....@@@@@@@@@........********************",
"**************....*****....@@@@@@@@@........********************",
"***********************....@@@@@@@@@.....%%%********************",
"*********************......OOOOOOOOO.....*%%********************",
"*********************......OOOOOOOOO......%%********************",
"*********************......OOOOOOOOO......**********************",
"*********************......OOOOOOOOO......**********************",
"*********************.....OOOO***OOOOO....**********************",
"*********************...**OOOO***OOOOO*...**********************",
"*********************...**OOOO***OOOOO*...**********************",
"*********************..***OOOO***OOOOO***.**********************",
"**************************OOOO***OOOOO**************************",
"**************************OOOO***OOOOO**************************",
"**************************OOOO***OOOOO**************************",
"**************************OOOO***OOOOO**************************",
"**************************OOOO***OOOOO**************************",
"**************************....***.....**************************",
"************************......***......*************************",
"************************......***......*************************",
"****************************************************************"
};
