/* XPM */
static char *result[] = {
/* columns rows colors chars-per-pixel */
"64 64 5 1 ",
"  c black",
". c #806138",
"X c gray60",
"o c gray74",
"O c None",
/* pixels */
"OOOOOOOOOOOOOOOOOOOOOOOOOOOOOOOOOOOOOOOOOOOOOOOOOOOOOOOOOOOOOOOO",
"OOOOOOOOOOOOOOOOOOOOOOOOOOOOOOOOOOOOOOOOOOOOOOOOOOOOOOOOOOOOOOOO",
"OOOOOOOOOOOOOOOOOOOOOOOOOOO          OOOOOOOOOOOOOOOOOOOOOOOOOOO",
"OOOOOOOOOOOOOOOOOOOOOOOOO  oooooooooo  OOOOOOOOOOOOOOOOOOOOOOOOO",
"OOOOOOOOOOOOOOOOOOOOOO   oooooooooooooo  OOOOOOOOOOOOOOOOOOOOOOO",
"OOOOOOOOOOOOOOOOOOOO  ooooooooooooooooooo  OOOOOOOOOOOOOOOOOOOOO",
"OOOOOOOOOOOOOOOOOOOO  ooooooooooooooooooo  OOOOOOOOOOOOOOOOOOOOO",
"OOOOOOOOOOOOOOOOOOO ooooooooooooooooooooooo OOOOOOOOOOOOOOOOOOOO",
"OOOOOOOOOOOOOOOOOO ooooooooooooooooooooooooo OOOOOOOOOOOOOOOOOOO",
"OOOOOOOOOOOOOOOOO ooooooooooooooooooooooooooo  OOOOOOOOOOOOOOOOO",
"OOOOOOOOOOOOOOOOO ooooooooooooooooooooooooooo  OOOOOOOOOOOOOOOOO",
"OOOOOOOOOOOOOOOO oooooooooooooooooooooooooooooo OOOOOOOOOOOOOOOO",
"OOOOOOOOOOOOOOOO oooooooooooooooooooooooooooooo OOOOOOOOOOOOOOOO",
"OOOOOOOOOOOOOOO ooooooo     oooooooo     ooooooo OOOOOOOOOOOOOOO",
"OOOOOOOOOOOOOOO oooooo ooooo oooooo ooooo oooooo OOOOOOOOOOOOOOO",
"OOOOOOOOOOOOOOO oooooo o   o oooooo o   o oooooo OOOOOOOOOOOOOOO",
"OOOOOOOOOOOOOOO oooooo o   o oooooo o   o oooooo OOOOOOOOOOOOOOO",
"OOOOOOOOOOOOOOO oooooo o   o oooooo o   o oooooo OOOOOOOOOOOOOOO",
"OOOOOOOOOOOOOOO oooooo ooooo oooooo ooooo oooooo OOOOOOOOOOOOOOO",
"OOOOOOOOOOOOOOO ooooooo     oooooooo     ooooooo OOOOOOOOOOOOOOO",
"OOOOOOOOOOOOOOO ooooooooooooooXoXooooooooooooooo OOOOOOOOOOOOOOO",
"OOOOOOOOOOOOOOOO oooooooooooooooooooooooooooooo OOOOOOOOOOOOOOOO",
"OOOOOOOOOOOOOOOO oooooooooooooooooooooooooooooo OOOOOOOOOOOOOOOO",
"OOOOOOOOOOOOOOOO oooooooooooooooooooooooooooooo OOOOOOOOOOOOOOOO",
"OOOOOOOOOOOOOOOOO ooooooooooooooooooooooooooo  OOOOOOOOOOOOOOOOO",
"OOOOOOOOOOOOOOOOO ooooooooooooooooooooooooooo  OOOOOOOOOOOOOOOOO",
"OOOOOOOOOOOOOOOOOO ooooooooooooooooooooooooo OOOOOOOOOOOOOOOOOOO",
"OOOOOOOOOOOOOOOOOOO ooooooooooooooooooooooo OOOOOOOOOOOOOOOOOOOO",
"OOOOOOOOOOOOOOOOOOOO  ooooooooooooooooooo  OOOOOOOOOOOOOOOOOOOOO",
"OOOOOOOOO.OOOOOOOOOOOO   oooooooooooooo  OOOOOOOOOOOOOOOOOOOOOOO",
"OOOOOOOOOO.OOOOOOOOOOOOOO  oooooooooo  OOOOOOOOOOOOOOOOOOOOOOOOO",
"OOOOOOOOOOO.OOOOOOOOOOOOOOO          OOOOOOOOOOOOOOOOOOOOOOOOOOO",
"OOOOOOOOOOO.OOOOOOOOOOOOOOO          OOOOOOOOOOOOOOOOOOOOOOOOOOO",
"OOOOOOOOOOOO..OOOOOOOOOOOO            OOOOOOOOOOOOOOOOOOOOOOOOOO",
"OOOOOOOOOOOOOO.OOOOOOOOOO              OOOOOOOOOOOOOOOOOOOOOOOOO",
"OOOOOOOOOOOOOOO.OOOOOOO                 OOOOOOOOOOOOOOOOOOOOOOOO",
"OOOOOOOOOOOOOOOO.OO  O                   OOOOOOOOOOOOOOOOOOOOOOO",
"OOOOOOOOOOOOOOOOO.ooo                     OOOOOOOOOOOOOOOOOOOOOO",
"OOOOOOOOOOOOOOOOOoooo                      OOOOOOOOOOOOOOOOOOOOO",
"OOOOOOOOOOOOOOOOOoooo                      OOOOOOOOOOOOOOOOOOOOO",
"OOOOOOOOOOOOOOOOOOooo     O          O    ooOOOOOOOOOOOOOOOOOOOO",
"OOOOOOOOOOOOOOOOOOooo     O          O    ooOOOOOOOOOOOOOOOOOOOO",
"OOOOOOOOOOOOOOOOOOOOOO   O           OO  ooooOOOOOOOOOOOOOOOOOOO",
"OOOOOOOOOOOOOOOOOOOOOOOOOO            O oooooOOOOOOOOOOOOOOOOOOO",
"OOOOOOOOOOOOOOOOOOOOOOOOOO            OO ooooOOOOOOOOOOOOOOOOOOO",
"OOOOOOOOOOOOOOOOOOOOOOOOOO            OOOOooOOOOOOOOOOOOOOOOOOOO",
"OOOOOOOOOOOOOOOOOOOOOOOOOO            OOOOOOOOOOOOOOOOOOOOOOOOOO",
"OOOOOOOOOOOOOOOOOOOOOOOOO              OOOOOOOOOOOOOOOOOOOOOOOOO",
"OOOOOOOOOOOOOOOOOOOOOOO                 OOOOOOOOOOOOOOOOOOOOOOOO",
"OOOOOOOOOOOOOOOOOOOOOOO                 OOOOOOOOOOOOOOOOOOOOOOOO",
"OOOOOOOOOOOOOOOOOOOOOOO                 OOOOOOOOOOOOOOOOOOOOOOOO",
"OOOOOOOOOOOOOOOOOOOOOOO                 OOOOOOOOOOOOOOOOOOOOOOOO",
"OOOOOOOOOOOOOOOOOOOOOOO                 OOOOOOOOOOOOOOOOOOOOOOOO",
"OOOOOOOOOOOOOOOOOOOOOOO                 OOOOOOOOOOOOOOOOOOOOOOOO",
"OOOOOOOOOOOOOOOOOOOOOO                   OOOOOOOOOOOOOOOOOOOOOOO",
"OOOOOOOOOOOOOOOOOOOOO                     OOOOOOOOOOOOOOOOOOOOOO",
"OOOOOOOOOOOOOOOOOOOO                       OOOOOOOOOOOOOOOOOOOOO",
"OOOOOOOOOOOOOOOOOOOO                       OOOOOOOOOOOOOOOOOOOOO",
"OOOOOOOOOOOOOOOOOOOO                       OOOOOOOOOOOOOOOOOOOOO",
"OOOOOOOOOOOOOOOOOOOOOoooooooOOOOOOoooooooOOOOOOOOOOOOOOOOOOOOOOO",
"OOOOOOOOOOOOOOOOOOOOOoooooooOOOOOOoooooooOOOOOOOOOOOOOOOOOOOOOOO",
"OOOOOOOOOOOOOOOOOOOOOOooooooOOOOOOOOooooOOOOOOOOOOOOOOOOOOOOOOOO",
"OOOOOOOOOOOOOOOOOOOOOOOOOOOOOOOOOOOOOOOOOOOOOOOOOOOOOOOOOOOOOOOO",
"OOOOOOOOOOOOOOOOOOOOOOOOOOOOOOOOOOOOOOOOOOOOOOOOOOOOOOOOOOOOOOOO"
};
