/* XPM */
static char *result[] = {
/* columns rows colors chars-per-pixel */
"64 72 109 2 ",
"   c black",
".  c #010000",
"X  c #000100",
"o  c #010101",
"O  c #030000",
"+  c #000002",
"@  c #030406",
"#  c #110700",
"$  c #775345",
"%  c #785446",
"&  c #795547",
"*  c #7D5846",
"=  c #7C5946",
"-  c #FB0200",
";  c #FD0000",
":  c #FD0100",
">  c #FE0000",
",  c #FE0002",
"<  c #FF0701",
"1  c #FF0603",
"2  c #FF0703",
"3  c #C92D00",
"4  c #CB2C00",
"5  c #D72300",
"6  c #FF7328",
"7  c #4BAF4D",
"8  c #4AAF4F",
"9  c #4BAF4F",
"0  c #4EAE4C",
"q  c #4DAE4F",
"w  c #4AB04D",
"e  c #4CAD50",
"r  c #4DAE51",
"t  c #969517",
"y  c #B3B234",
"u  c #FB9100",
"i  c #F99300",
"p  c #FB9300",
"a  c #FD9000",
"s  c #FD9100",
"d  c #FB9400",
"f  c #F89402",
"g  c #FF9501",
"h  c #FE9600",
"j  c #FF9600",
"k  c #FF9700",
"l  c #FF9702",
"z  c #FD9704",
"x  c #FC9707",
"c  c #FA9801",
"v  c #FD9800",
"b  c #FF9800",
"n  c #FF9801",
"m  c #FC9802",
"M  c #FD9802",
"N  c #FF9A03",
"B  c #FF9B03",
"V  c #FC9804",
"C  c #FC9806",
"Z  c #FF9C06",
"A  c #FF9C08",
"S  c #FF9C0A",
"D  c #E3A502",
"F  c #E4A500",
"G  c #FDBF06",
"H  c #FFB60E",
"J  c #FFBE08",
"K  c #FFBF08",
"L  c #FFBD0A",
"P  c #FF9335",
"I  c #FF9337",
"U  c #FF9435",
"Y  c #FDC005",
"T  c #F4DF34",
"R  c #FFD936",
"E  c #FFDD37",
"W  c #FFDC39",
"Q  c #FEEA39",
"!  c #FDE93A",
"~  c #FFE93B",
"^  c #FEEA3B",
"/  c #FFEB3C",
"(  c #FEEA3D",
")  c #FEE93E",
"_  c #CA964A",
"`  c #CB974C",
"'  c #C9984C",
"]  c #D39E50",
"[  c #D29E52",
"{  c #D6A256",
"}  c #D8CE77",
"|  c #3E51B0",
" . c #3E50B2",
".. c #3D51B4",
"X. c #3E50B4",
"o. c #3E50B6",
"O. c #454F82",
"+. c #4554B1",
"@. c #E3D980",
"#. c #EDE38A",
"$. c #FFF4A7",
"%. c #DBFFDD",
"&. c #DCFFE0",
"*. c #FDFFFA",
"=. c #FDFFFC",
"-. c #FFFDFE",
";. c #FDFFFE",
":. c #FEFEFE",
">. c None",
/* pixels */
">.>.>.>.>.>.>.>.>.>.>.>.>.>.>.>.>.>.>.>.>.>.>.>.>.>.>.>.>.>.>.>.>.>.>.>.>.>.>.>.>.>.>.>.>.>.>.>.>.>.>.>.>.>.>.>.>.>.>.>.>.>.>.>.",
">.>.>.>.>.>.>.>.>.>.>.>.>.>.>.>.>.>.>.>.>.>.>.>.>.>.>.>.>.>.>.>.>.>.>.>.>.>.>.>.>.>.>.>.>.>.>.>.>.>.>.>.>.>.>.>.>.>.>.>.>.>.>.>.",
">.>.>.>.>.>.>.>.>.>.>.>.>.>.>.>.>.>.>.>.>.>.>.>.>.>.>.>.>.>.>.>.>.>.>.>.>.>.>.>.>.>.>.>.>.>.>.>.>.>.>.>.>.>.>.>.>.>.>.>.>.>.>.>.",
">.>.>.>.>.>.>.>.>.>.>.>.>.>.>.>.>.>.>.>.>.>.>.>.>.>.>.>.>.>.>.>.>.>.>.>.>.>.>.>.>.>.>.>.>.k k k k >.>.>.>.>.>.>.>.>.>.>.>.>.>.>.",
">.>.>.>.>.>.>.>.>.>.>.>.>.>.k k k >.>.>.>.>.>.>.>.>.>.>.>.>.>.>.>.>.>.>.>.>.>.>.>.>.>.V k k k k k k >.>.>.>.>.>.>.>.>.>.>.>.>.>.",
">.>.>.>.>.>.>.>.>.>.>.>.k k k k k k k >.>.>.>.>.>.>.>.>.>.>.>.>.>.>.>.>.>.>.>.>.>.>.>.n k 0 9 9 9 c >.>.>.>.>.>.>.>.>.>.>.>.>.>.",
">.>.>.>.>.>.>.>.>.>.>.>.a > > > : k k k z >.>.>.>.>.>.>.>.>.>.>.>.>.>.>.>.>.>.>.>.>.k k k 9 9 9 9 9 >.>.>.>.>.>.>.>.>.>.>.>.>.>.",
">.>.>.>.>.>.>.>.>.>.>.>.> > > > > > : k z >.>.>.>.>.>.>.>.>.>.>.>.>.>.>.>.>.>.>.>.k k 0 9 9 9 9 9 9 w >.>.>.>.>.>.>.>.>.>.>.>.>.",
">.>.>.>.>.>.>.>.>.>.>.> > > > > > > : k l k >.>.>.>.>.>.>.>.>.>.>.>.>.>.>.>.>.>.k k k 9 9 9 9 9 9 9 9 9 >.>.>.>.>.>.>.>.>.>.>.>.",
">.>.>.>.>.>.>.>.>.>.> > > > > > > > > n k k >.>.>.>.>.>.>.>.>.>.>.>.>.>.>.>.>.k k b 9 9 9 9 9 9 9 9 9 9 9 >.>.>.>.>.>.>.>.>.>.>.",
">.>.>.>.>.>.>.>.>.> > > > > > > > > > > : k k k k >.>.>.>.>.>.>.>.>.>.>.>.k k k k 9 9 9 9 9 9 9 9 9 9 9 9 9 >.>.k k >.>.>.>.>.>.",
">.>.>.>.>.>.>.k k : > > > > 2 G > > > > > > k k k k k k k >.>.>.>.>.k k k k k k 9 9 :.:.:.9 7 9 9 9 9 9 9 9 k k k k k k >.>.>.>.",
">.>.>.>.k k k k k k k k > > 2 G L > > > > G G G : > > > > k >.>.k k 9 9 q :.:.:.:.:.:.:.:.:.:.9 9 9 9 c k k k k % % % % k k >.>.",
">.>.>.>.k k k k k k b k > : 2 G J > > ; > G G G > > > > > k >.>.k k 9 9 9 :.:.:.:.:.:.:.:.:.:.9 9 9 9 c k k k k % % % % k k >.>.",
">.>.>.>.% % % % % % % k k k > > L > > G G G G G G G G > > : k k 0 9 9 :.:.:.:.:.9 9 9 9 9 :.:.r 9 9 k k % % % % % % % % & % >.>.",
">.>.>.>.% % % % % % % k k k > > L > > G G G G G G G G , > : k k 0 9 9 :.:.:.:.:.9 9 9 9 9 :.:.r 8 9 k k % % % % % % % % % % >.>.",
">.>.>.>.% % % % % % % % * k > > : G L G G G G G G G G > > > k m 9 9 9 :.:.:.e 9 9 9 9 9 9 :.:.r 9 c % $ % % % % % % % % >.>.>.>.",
">.>.>.>.% % % % % % % % * k > > > G L G G G G G G L > > > > k m 9 9 9 9 9 9 9 9 9 9 9 :.:.:.:.9 9 c % % % % % % % % % % >.>.>.>.",
">.>.>.>.>.>.% % % % % % * k a > > G L G G G G G G > > > > > k m 9 9 9 9 9 9 9 9 9 :.-.:.:.:.:.9 k l % % % % % % % % >.>.>.>.>.>.",
">.>.>.>.>.>.% % % % % % * k a > - > > G G G G G G > > > > > k m 9 9 9 9 9 9 =.:.:.:.:.:.:.9 9 9 k k % % % % % % % % >.>.>.>.>.>.",
">.>.>.>.>.>.>.% % % % % * k a > - > > > - G G G G L > > > > k m 9 9 9 9 9 :.:.:.:.:.:.9 9 9 9 9 k k >.>.% % % % % >.>.>.>.>.>.>.",
">.>.>.>.>.>.>.>.% % % % = k a > L > > > - G G G G L > > > > k m 9 9 9 9 *.:.:.:.9 9 9 9 9 9 9 9 k k >.>.% % % % % >.>.>.>.>.>.>.",
">.>.>.>.>.>.>.>.% % % >.>.k a > L > > G G G G G G L > > > > k m 9 9 9 :.:.:.:.9 9 9 9 9 9 9 9 9 k k >.>.>.% % % % >.>.>.>.>.>.>.",
">.>.>.>.>.>.>.>.% % % >.>.k a > L > - G G G G G G L > > > > k m 9 9 9 :.:.:.r 9 9 9 9 9 9 9 9 9 k k >.>.>.% % % >.>.>.>.>.>.>.>.",
">.>.>.>.>.>.>.>.>.% >.>.>.k a > L G G G G G G > G G G L > > k m 9 9 9 :.:.:.r 9 9 9 7 =.:.:.:.-.k n >.>.>.% % % >.>.>.>.>.>.>.>.",
">.>.>.>.>.>.>.>.>.>.>.>.k k a > 3 G G G G G 4 6 6 k k k k k k M y y v k k k k k 9 9 %.:.:.:.:.:.:.A k >.>.>.>.>.>.>.>.>.>.>.>.>.",
">.>.>.>.>.>.>.>.>.>.>.>.k k a > - G G G G Y > k k k k k k k k k j k k k k k n k 9 9 :.:.:.:.:.:.:.A k >.>.>.>.>.>.>.>.>.>.>.>.>.",
">.>.>.>.>.>.>.>.>.>.>.>.k k s > - G G G K > > k k k   . k k k k k k .   k k M k %.:.:.%.%.%.%.%.:.A k >.>.>.>.>.>.>.>.>.>.>.>.>.",
">.>.>.>.>.>.>.>.>.>.>.>.k k a > - G G G L > > k k z   O b k k k k k .   V k k k :.:.:.:.:.:.;.:.:.Z k >.>.>.>.>.>.>.>.>.>.>.>.>.",
">.>.>.>.>.>.>.>.>.>.>.{ k k 1 I U G K G G > > k k z   O k k k k k k .   V k k $.:.:.:.r 9 9 9 :.9 c k k >.>.>.>.>.>.>.>.>.>.>.>.",
">.>.>.>.>.>.>.>.>.>.>.k k k 2 G L > > G G > > k k z   O k k     k k .   V k k 9 9 :.:.:.:.:.:.=.9 9 k k >.>.>.>.>.>.>.>.>.>.>.>.",
">.>.>.>.>.>.>.>.>.>.>.k g 6 < G L > > P U 4 > k k z   O k     .   k .   k   M 9 9 %.%.;.:.&.%.=.9 9 k k >.>.>.>.>.>.>.>.>.>.>.>.",
">.>.>.>.>.>.>.>.>.>.>.k a > > , Y > > > > > > k k z                         m 9 9 9 9 9 9 9 9 9 9 9 k k k >.>.>.>.>.>.>.>.>.>.>.",
">.>.>.>.>.>.>.>.>.>.>.k u 5 5 5 H 5 5 5 5 5 5 k k                         k M t t t t t t t t t t t k k k >.>.>.>.>.>.>.>.>.>.>.",
">.>.>.>.>.>.>.>.>.>.k k ^ ^ ^ ^ ^ ^ ^ ^ ^ ^ ^ k   z   O k k   O k k .   V k k X.      X.X.X.X.X.X.@       k >.>.>.>.>.>.>.>.>.>.",
">.>.>.>.>.>.>.>.>.k k k ^ ^ ^ ! ^     ^ ^ ^ ^ k k z   O k k k k k k .   V k .         | X.X.X.X.          k k >.>.>.>.>.>.>.>.>.",
">.>.>.>.>.>.>.>.k k k k ^ ^ ^ ^         . ^ ^ k k z   O k k k k k k .   V                 X.X.X.            k k >.>.>.>.>.>.>.>.",
">.>.>.>.>.>.>.>.k k k ^ ^ ! T             ^ ^ k k z   O k k k k k k .   V     X.X.        | X.X.            k k >.>.>.>.>.>.>.>.",
">.>.>.>.>.>.>.k k ' ^ ^ ^ ^               + @.k k z   O k k k k k k .   V k k k  .X.          O.              _ k >.>.>.>.>.>.>.",
">.>.>.>.>.>.b k k   ^ ^ Q ^                   k l z   O k k k k n k .   V k h k X.X.        +                   k k >.>.>.>.>.>.",
">.>.>.>.>.>.k `     @./ }                 ^ R h             k k             M k O.                              _ k >.>.>.>.>.>.",
">.>.>.>.k k k         ^                 . ^ k k k k k k k k k k k k k k k k k k                                   b k k >.>.>.>.",
">.>.>.>.k k k # #                       X ^ D D D D D F ^ ^ k x X.X.X.[ [ [ [ [                                   X.z k >.>.>.>.",
">.>.k k k k ^ ^ ^ ^                       o ^ ^ ^ ^ ^ ^ ^ ^ k x X.X.X.                                            X.X.X.k k >.>.",
">.>.k k D D ^ ^ ^ ^ # #                     #.^ ^ ^ ^ ^ ^ ^ k x X.X.X.                                            X.X.X.k k >.>.",
">.>.k k ^ ^ ^ ^ ^ ^ ^ ^                       o ^ ^ ^ ^ ^ ^ k x X.X.X.                                            X.f v k k >.>.",
">.>.k k E W ^ ^ ^ ^ ^ ^                         #.^ ^ ^ ^ ^ k x X.X.X.                            .               X.i k ] [ >.>.",
">.>.>.>.k k     ^ ^ ^                             . ^ ^ ^ ^ k x X.X.X.                        | X.@               k k k >.>.>.>.",
">.>.>.>.k k k                                         ^ ^ ^ k x X.X.X.                        | X.X.X.X.          k >.>.>.>.>.>.",
">.>.>.>.>.>.k           ^ ^ ^ ^ )                       ^ ^ k x X.X.X.                        | X.X.X.X.          k >.>.>.>.>.>.",
">.>.>.>.>.>.k k     ^ ^ ^ ^ ^ ^ ^                     X   ^ k x X.X.X.          X.            | X.f X.X.X.        k >.>.>.>.>.>.",
">.>.>.>.>.>.k k k ^ Q ^ ^ ^ ^ ^ ^ ! (                     ^ k x X.X.X.X.        X.          . X.k k k +.X.        >.>.>.>.>.>.>.",
">.>.>.>.>.>.>.k k ^ ^ ^ ^ ^ ^ ^ ^ ~ ^                     ^ k x X.X.X.X.+     ..X.            V k k k k X.k       >.>.>.>.>.>.>.",
">.>.>.>.>.>.>.k k k k k k k ^ ^ ^ ^ ^ ^ )                 . k x X.X.X.X.+     X...X.          V k k k b k k k     >.>.>.>.>.>.>.",
">.>.>.>.>.>.>.>.k k k k k k B ^ ^ ^ ^ ^ ~         X       . k x X.X.X.X.X.  | X.X.X.          k >.>.>.S k k >.>.  >.>.>.>.>.>.>.",
">.>.>.>.>.>.>.>.>.k >.>.>.k k k ^ ^ ^ ^ (         . ^     . k x X.X.X.X.X.  | X.X.    V k k k >.>.>.>.>.k >.>.>.  >.>.>.>.>.>.>.",
">.>.>.>.>.>.>.>.>.>.>.>.>.>.>.k k k k     ^ ^ ^       ^ ^ Q k x X.X.X.X.X...X.X.k   k M k >.>.>.>.>.>.>.k >.>.>.>.>.>.>.>.>.>.>.",
">.>.>.>.>.>.>.>.>.>.>.>.>.>.>.k k k b     Q ^ ^       ^ ^ ^ k x X.X.X.X.X.X.X.X.k   k k k >.>.>.>.>.>.>.k >.>.>.>.>.>.>.>.>.>.>.",
">.>.>.>.>.>.>.>.>.>.>.>.>.>.>.>.>.>.>.k k k k h k z   ^ ^ ^ k x X.X.X.X.X.k k k l k b >.>.>.>.>.>.>.>.>.>.>.>.>.>.>.>.>.>.>.>.>.",
">.>.>.>.>.>.>.>.>.>.>.>.>.>.>.>.>.>.>.k k k k k k z   ^ ^ ^ k x X.X.X.X.X.k k k k k k >.>.>.>.>.>.>.>.>.>.>.>.>.>.>.>.>.>.>.>.>.",
">.>.>.>.>.>.>.>.>.>.>.>.>.>.>.>.>.>.>.>.>.>.>.k k k k k k ^ k x X.X.C l k k k >.>.>.>.>.>.>.>.>.>.>.>.>.>.>.>.>.>.>.>.>.>.>.>.>.",
">.>.>.>.>.>.>.>.>.>.>.>.>.>.>.>.>.>.>.>.>.>.>.>.>.k k k k ^ k x X.o.k l k >.>.>.>.>.>.>.>.>.>.>.>.>.>.>.>.>.>.>.>.>.>.>.>.>.>.>.",
">.>.>.>.>.>.>.>.>.>.>.>.>.>.>.>.>.>.>.>.>.>.>.>.>.>.>.>.k N k k d p k >.>.>.>.>.>.>.>.>.>.>.>.>.>.>.>.>.>.>.>.>.>.>.>.>.>.>.>.>.",
">.>.>.>.>.>.>.>.>.>.>.>.>.>.>.>.>.>.>.>.>.>.>.>.>.>.>.>.>.k k k k k >.>.>.>.>.>.>.>.>.>.>.>.>.>.>.>.>.>.>.>.>.>.>.>.>.>.>.>.>.>.",
">.>.>.>.>.>.>.>.>.>.>.>.>.>.>.>.>.>.>.>.>.>.>.>.>.>.>.>.>.>.k k k k >.>.>.>.>.>.>.>.>.>.>.>.>.>.>.>.>.>.>.>.>.>.>.>.>.>.>.>.>.>.",
">.>.>.>.>.>.>.>.>.>.>.>.>.>.>.>.>.>.>.>.>.>.>.>.>.>.>.>.>.>.k k k k >.>.>.>.>.>.>.>.>.>.>.>.>.>.>.>.>.>.>.>.>.>.>.>.>.>.>.>.>.>.",
">.>.>.>.>.>.>.>.>.>.>.>.>.>.>.>.>.>.>.>.>.>.>.>.>.>.>.>.>.>.k k k k >.>.>.>.>.>.>.>.>.>.>.>.>.>.>.>.>.>.>.>.>.>.>.>.>.>.>.>.>.>.",
">.>.>.>.>.>.>.>.>.>.>.>.>.>.>.>.>.>.>.>.>.>.>.>.>.>.>.>.>.>.k k k k >.>.>.>.>.>.>.>.>.>.>.>.>.>.>.>.>.>.>.>.>.>.>.>.>.>.>.>.>.>.",
">.>.>.>.>.>.>.>.>.>.>.>.>.>.>.>.>.>.>.>.>.>.>.>.>.>.>.>.>.>.k k >.>.>.>.>.>.>.>.>.>.>.>.>.>.>.>.>.>.>.>.>.>.>.>.>.>.>.>.>.>.>.>.",
">.>.>.>.>.>.>.>.>.>.>.>.>.>.>.>.>.>.>.>.>.>.>.>.>.>.>.>.>.>.>.>.>.>.>.>.>.>.>.>.>.>.>.>.>.>.>.>.>.>.>.>.>.>.>.>.>.>.>.>.>.>.>.>.",
">.>.>.>.>.>.>.>.>.>.>.>.>.>.>.>.>.>.>.>.>.>.>.>.>.>.>.>.>.>.>.>.>.>.>.>.>.>.>.>.>.>.>.>.>.>.>.>.>.>.>.>.>.>.>.>.>.>.>.>.>.>.>.>.",
">.>.>.>.>.>.>.>.>.>.>.>.>.>.>.>.>.>.>.>.>.>.>.>.>.>.>.>.>.>.>.>.>.>.>.>.>.>.>.>.>.>.>.>.>.>.>.>.>.>.>.>.>.>.>.>.>.>.>.>.>.>.>.>."
};
