/* XPM */
static char *b60ffd47315f4679d184f4c33e3482a8rRQ91gdwU850JBJg[] = {
/* columns rows colors chars-per-pixel */
"64 64 15 1 ",
"  c #10171B",
". c #15151A",
"X c #17171B",
"o c #17181C",
"O c #1A1A1F",
"+ c #1F1F24",
"@ c #24242B",
"# c #2B2B33",
"$ c #004F1C",
"% c #005F1A",
"& c #006913",
"* c #007916",
"= c #383842",
"- c #4D4D5B",
"; c #00980F",
/* pixels */
"%%;;$$%%%%;;;;%%%%%%$$****;;%%%%%%********;;%%******%%%%;;%%%%%%",
"%%;;$$%%%%;;;;;%%%%%%$****;;%%%%%%********;;%%******%%%;;;%%%%%%",
";;;;%%%%%%***;;%%%%%%%****&&%%%%%%**********%%*****$%%%;*;;%%%%%",
";;**%%%%%%****;;%%%%%%****&&%%%%%%$$********%%****$%%%;***;%%%%%",
"****;%%%%%&****;;%%%%%****$$%%%%%%%$$*******%%$$$$$%%%**&***%%%%",
"*****;%%%%&&&***;;%%%&&***$$%%;;%%%%$$****$%%%$$$$%%%%**&&**%%%%",
"******%%%%$&&*****%%&&&***%%%%;;;%%%%$$***%%%%%%;;%%%%**&&**%%%;",
"******%%%%%$$&****%%&&&&*++@+++++;%%%%$***%%%%%;;;%%%%**&&**%%;;",
"******%%%%%$$&&***%%&&&++=====---++  %%%**%%%%%;;;%%%%**&&**%%**",
"****$$%%%%%%%$&&**%%%$&++=====---++  %%%**%%%%;;**%%%%**&&**%%**",
"***$$%%%;%%%%$$&&&%%%++===========-++++++*%%%;;***%%%%$$&&$$;;**",
"**$$%%%;;;%%%%$$&&%++================----+++;;****%%%%$$&&$$;***",
"$$$%%%****%%%%%$$$+========================-++**&&%%;%%%&&%%****",
"$$%%%%****%%%%%%$+===========================-+++&%%;;%%&&%%****",
"%%%%%%&****;;%%%%+===========================-+++&%%;;;;$%%%***$",
"%%%%%%&&***;;;+++===============================-++%**;;$%%%*$$$",
";%%%%%%$*****.###=================================-++***%%%%$$$%",
";;;%%%%$****.######==================================+**%%%%$$%%",
"*;;;%%%%&***.######==================================+**%%%%%%%%",
"***;%%%%&&&*.#########================================.*%%%%%%%%",
"****%%%%%&&&.###########==============================.*%%%%%%%&",
"****%%%%%$$&.###############--=====================###.*%%%%%&&&",
"****%%%%%%$$.####################-----=======#########. %%%%&&&&",
"****%%%%%%$$.####################-----=======#########. %%%%&&&&",
"&****%%%%%;.#######@@##############################@@@@.*%%%&&&&",
"&&***;%%%%;.#########@@#########################@@@@@+++..%%$&&&",
"&&****%%%%*.@#########@####################@@@@@@++++@=@..%%%%&&",
"&&****%%%%*.@#########@####################@@@@@@++++@=@..%%%%&&",
"&&*****%%..==@@@########@###############@@@@@++++=======..%%%%&&",
"&&*****;.=======@@####################@@@@@+===========#..%%%%&&",
"&&&****.#=========@##################@@@==============####.%%%$$",
"&&&****.###========@@#############@@@@=============#######.%%%$$",
"&&&&***.###========@@#############@@@@=============#######.%;%%%",
"&&&&&&*.#####========@@@######@@@@@@@=============########.%;;%%",
"$$&&&&.#######==========@@@@@@@@@@+==============#######@@.%**%%",
"$$$&&&.@#########--==========++++#============##########@@.%**%%",
"%%$$&&.@##############-=======++=============###########@@.***;;",
"%%%$$$.@##############-=======++=============###########@@.****;",
";;%%$$$.@#####################=============-###########@@@.*****",
";;%%%&$.@###################+==========--##############@..******",
"&&%%%%;.@@@#################+#========################@@..******",
"&&%%%%;.@@@#################+#========################@@..******",
"**%%%%+.+@@@###############+#########################@@.o.$***&&",
"**%%%%+..++@@@#############+#######################@@@@..O$*&&&&",
"&&%%%%%..XO++@@@@##########+######################@@@@+.%%&&&&&&",
"&&%%%%%$....X+++@@@@@@#####+@###################@@@@@+..%&&&&&&&",
"&&%%%%%%....X+++@@@@@@#####+@###################@@@@+++O%%$&&&&&",
"&&%%%%%%%....+X++++++@@@@@@+@@@@###########@@@@@@@@@++..%%$$&&&&",
"$$%%%;;%%%$XX+X++ X++++++++++@@@@@@+@@@@@@@@@@@@O@O@+XX%%%%$$&&&",
"$%%%;;;%%%%%XX..XXXX..X.X+++++++++++++++++++++++XX..XX%%%%%%$$$&",
"%%%%**;;%%%%XX.XXX.+ XX..+++++++++++++++++++++++....XX%%%%;;%$$$",
"%%%%****%%%%**XXXXXXXX .XXXXXXXXXX+X+XX+XXX.XXXXX. +X;;%%%;;%%$$",
"%%%%****%%%%$$%%*  ....XXX.X+XXXXXXXXXXXX..X.XX.XXX  ;;%%%**%;;;",
"%%%%****%%%%%$%%***   XX.++X+XX+XXXXXXX XXXX.++X.&%%***;;%**;;;;",
"%%%;*****;%%%%%;****%%***+X+X+.X.XXXXXXXXXX+****;%%%***;;;**;;**",
"%%;;******%%%%******%%***X+X+X.X.XXXXXXXXXXX******%%****;***;***",
"%%&&&&****%%%%*****$%%******%%******%%%%%%;*******%%$*****$$****",
"%%&&&&&***%%%%****%%%%******%%******%%%%%;;*******%%%$****$$$***",
"%%&&&&&&**%%%;****%%%%$$****%%****$%%%%%;;****$$$$%%%%****%$$$**",
"%%&&&&&&&&%%;*****%%%%$$$$**%%**$$$%%%%%*****$$$$$%%%%****%%$$$*",
"%%&&&&&&&&%%****$$%%%;;;$$$$%%%$$$%%%%%%****$$%;;;%%%%$***%%**$$",
"%%&&&&&&&&%%**$$$%%%;;;;;;%%%%%%%%%%%%%%**$$$%%;;;;%%%%$$*%%*$$$",
"%%$$&&&$$$%%$$$$$%%%****;;%%%%%%%%;;;;;;;;$$%%;;**;%%%%$$$%%$$%%",
"%%$$&&$$$$%%$$$$%%%%****;;%%%%%%%%;;;;;;;;$$%%;;**;;%%%%$$%%$$%%"
};
